<?xml version="1.0" standalone="no"?><!DOCTYPE svg PUBLIC "-//W3C//DTD SVG 1.1//EN" "http://www.w3.org/Graphics/SVG/1.1/DTD/svg11.dtd"><svg t="1548402507119" class="icon" style="" viewBox="0 0 1024 1024" version="1.1" xmlns="http://www.w3.org/2000/svg" p-id="8216" xmlns:xlink="http://www.w3.org/1999/xlink" width="48" height="48"><defs><style type="text/css"></style></defs><path d="M712.06912 374.39488 329.80992 374.39488l0-70.144c0-88.28928 77.37344-157.47072 176.3328-158.02368 96.70656 0.512 169.53344 68.1984 169.53344 158.02368l0 35.1232c0 9.66656 8.13056 17.55136 18.20672 17.55136 10.07616 0 18.20672-7.82336 18.20672-17.55136l0-35.1232c0-109.40416-87.87968-192.02048-204.75904-193.08544l-2.33472 0c-118.784 1.06496-211.59936 85.48352-211.59936 193.08544l0 71.9872c-61.58336 8.66304-109.24032 59.392-109.24032 121.09824l0 228.20864c0 67.82976 57.1392 122.90048 127.44704 122.90048l400.4864 0c70.3488 0 127.44704-55.07072 127.44704-122.90048L839.53664 497.33632C839.51616 429.54752 782.31552 374.39488 712.06912 374.39488L712.06912 374.39488 712.06912 374.39488zM803.10272 725.48352c0 48.4352-40.81664 87.77728-91.0336 87.77728L311.6032 813.2608c-50.21696 0-90.97216-39.36256-90.97216-87.77728L220.63104 497.29536c0-48.4352 40.81664-87.73632 90.97216-87.73632l400.4864 0c50.2784 0 91.0336 39.36256 91.0336 87.73632L803.1232 725.48352 803.10272 725.48352zM511.81568 479.72352c-60.2112 0-109.24032 47.22688-109.24032 105.34912 0 52.16256 39.66976 95.29344 91.40224 103.54688-0.04096 0.63488-0.38912 1.10592-0.38912 1.7408l0 52.67456c0 9.728 8.13056 17.6128 18.20672 17.6128s18.20672-7.8848 18.20672-17.6128L530.00192 690.3808c0-0.65536-0.32768-1.10592-0.38912-1.7408 51.75296-8.25344 91.40224-51.38432 91.40224-103.54688C621.056 526.97088 572.06784 479.72352 511.81568 479.72352L511.81568 479.72352 511.81568 479.72352zM511.81568 655.31904c-40.1408 0-72.82688-31.55968-72.82688-70.18496 0-38.74816 32.72704-70.18496 72.82688-70.18496 40.09984 0 72.72448 31.51872 72.72448 70.18496C584.64256 623.77984 551.95648 655.31904 511.81568 655.31904L511.81568 655.31904 511.81568 655.31904z" p-id="8217" fill="#d1d5da"></path></svg>